<svg xmlns="http://www.w3.org/2000/svg" id="Capa_1" height="512" viewBox="0 0 512 512" width="512"><g><path d="m406.5 0h-301c-23.435 0-42.5 19.065-42.5 42.5v427c0 23.435 19.065 42.5 42.5 42.5h32.734c4.142 0 7.5-3.358 7.5-7.5s-3.358-7.5-7.5-7.5h-32.734c-15.164 0-27.5-12.336-27.5-27.5v-272.5h229.213c4.143 0 7.5-3.358 7.5-7.5s-3.357-7.5-7.5-7.5h-229.213v-139.5c0-15.164 12.336-27.5 27.5-27.5h301c15.164 0 27.5 12.336 27.5 27.5v139.5h-92.319c-4.143 0-7.5 3.358-7.5 7.5s3.357 7.5 7.5 7.5h92.319v137.404c0 4.142 3.357 7.5 7.5 7.5s7.5-3.358 7.5-7.5v-291.904c0-23.435-19.065-42.5-42.5-42.5z"></path><path d="m441.5 362.011c-4.143 0-7.5 3.358-7.5 7.5v99.989c0 15.164-12.337 27.5-27.5 27.5h-233.245c-4.142 0-7.5 3.358-7.5 7.5s3.358 7.5 7.5 7.5h233.245c23.435 0 42.5-19.065 42.5-42.5v-99.989c0-4.142-3.357-7.5-7.5-7.5z"></path><path d="m98.5 99.925c-4.142 0-7.5 3.358-7.5 7.5v42.075c0 9.649 7.851 17.5 17.5 17.5h293c9.649 0 17.5-7.851 17.5-17.5v-102c0-9.649-7.851-17.5-17.5-17.5h-293c-9.649 0-17.5 7.851-17.5 17.5v24.862c0 4.142 3.358 7.5 7.5 7.5s7.5-3.358 7.5-7.5v-24.862c0-1.378 1.122-2.5 2.5-2.5h293c1.379 0 2.5 1.122 2.5 2.5v102c0 1.378-1.121 2.5-2.5 2.5h-293c-1.378 0-2.5-1.122-2.5-2.5v-42.075c0-4.142-3.358-7.5-7.5-7.5z"></path><path d="m145.5 210h-35c-9.649 0-17.5 7.851-17.5 17.5v10c0 9.649 7.851 17.5 17.5 17.5h35c9.649 0 17.5-7.851 17.5-17.5v-10c0-9.649-7.851-17.5-17.5-17.5zm2.5 27.5c0 1.378-1.122 2.5-2.5 2.5h-35c-1.378 0-2.5-1.122-2.5-2.5v-10c0-1.378 1.122-2.5 2.5-2.5h35c1.378 0 2.5 1.122 2.5 2.5z"></path><path d="m195.5 255h35c9.649 0 17.5-7.851 17.5-17.5v-10c0-9.649-7.851-17.5-17.5-17.5h-35c-9.649 0-17.5 7.851-17.5 17.5v10c0 9.649 7.851 17.5 17.5 17.5zm-2.5-27.5c0-1.378 1.122-2.5 2.5-2.5h35c1.378 0 2.5 1.122 2.5 2.5v10c0 1.378-1.122 2.5-2.5 2.5h-35c-1.378 0-2.5-1.122-2.5-2.5z"></path><path d="m263 227.5v10c0 9.649 7.851 17.5 17.5 17.5h35c9.649 0 17.5-7.851 17.5-17.5v-10c0-9.649-7.851-17.5-17.5-17.5h-35c-9.649 0-17.5 7.851-17.5 17.5zm55 0v10c0 1.378-1.121 2.5-2.5 2.5h-35c-1.379 0-2.5-1.122-2.5-2.5v-10c0-1.378 1.121-2.5 2.5-2.5h35c1.379 0 2.5 1.122 2.5 2.5z"></path><path d="m366.5 255h35c9.649 0 17.5-7.851 17.5-17.5v-10c0-9.649-7.851-17.5-17.5-17.5h-35c-9.649 0-17.5 7.851-17.5 17.5v10c0 9.649 7.851 17.5 17.5 17.5zm-2.5-27.5c0-1.378 1.121-2.5 2.5-2.5h35c1.379 0 2.5 1.122 2.5 2.5v10c0 1.378-1.121 2.5-2.5 2.5h-35c-1.379 0-2.5-1.122-2.5-2.5z"></path><path d="m145.5 270h-35c-9.649 0-17.5 7.851-17.5 17.5v25c0 9.649 7.851 17.5 17.5 17.5h35c9.649 0 17.5-7.851 17.5-17.5v-25c0-9.649-7.851-17.5-17.5-17.5zm2.5 42.5c0 1.378-1.122 2.5-2.5 2.5h-35c-1.378 0-2.5-1.122-2.5-2.5v-25c0-1.378 1.122-2.5 2.5-2.5h35c1.378 0 2.5 1.122 2.5 2.5z"></path><path d="m178 312.5c0 9.649 7.851 17.5 17.5 17.5h35c9.649 0 17.5-7.851 17.5-17.5v-25c0-9.649-7.851-17.5-17.5-17.5h-35c-9.649 0-17.5 7.851-17.5 17.5zm15-25c0-1.378 1.122-2.5 2.5-2.5h35c1.378 0 2.5 1.122 2.5 2.5v25c0 1.378-1.122 2.5-2.5 2.5h-35c-1.378 0-2.5-1.122-2.5-2.5z"></path><path d="m263 312.5c0 9.649 7.851 17.5 17.5 17.5h35c9.649 0 17.5-7.851 17.5-17.5v-25c0-9.649-7.851-17.5-17.5-17.5h-35c-9.649 0-17.5 7.851-17.5 17.5zm15-25c0-1.378 1.121-2.5 2.5-2.5h35c1.379 0 2.5 1.122 2.5 2.5v25c0 1.378-1.121 2.5-2.5 2.5h-35c-1.379 0-2.5-1.122-2.5-2.5z"></path><path d="m349 312.5c0 9.649 7.851 17.5 17.5 17.5h35c9.649 0 17.5-7.851 17.5-17.5v-25c0-9.649-7.851-17.5-17.5-17.5h-35c-9.649 0-17.5 7.851-17.5 17.5zm15-25c0-1.378 1.121-2.5 2.5-2.5h35c1.379 0 2.5 1.122 2.5 2.5v25c0 1.378-1.121 2.5-2.5 2.5h-35c-1.379 0-2.5-1.122-2.5-2.5z"></path><path d="m145.5 345h-35c-9.649 0-17.5 7.851-17.5 17.5v25c0 9.649 7.851 17.5 17.5 17.5h35c9.649 0 17.5-7.851 17.5-17.5v-25c0-9.649-7.851-17.5-17.5-17.5zm2.5 42.5c0 1.378-1.122 2.5-2.5 2.5h-35c-1.378 0-2.5-1.122-2.5-2.5v-25c0-1.378 1.122-2.5 2.5-2.5h35c1.378 0 2.5 1.122 2.5 2.5z"></path><path d="m178 387.5c0 9.649 7.851 17.5 17.5 17.5h35c9.649 0 17.5-7.851 17.5-17.5v-25c0-9.649-7.851-17.5-17.5-17.5h-35c-9.649 0-17.5 7.851-17.5 17.5zm15-25c0-1.378 1.122-2.5 2.5-2.5h35c1.378 0 2.5 1.122 2.5 2.5v25c0 1.378-1.122 2.5-2.5 2.5h-35c-1.378 0-2.5-1.122-2.5-2.5z"></path><path d="m263 387.5c0 9.649 7.851 17.5 17.5 17.5h35c9.649 0 17.5-7.851 17.5-17.5v-25c0-9.649-7.851-17.5-17.5-17.5h-35c-9.649 0-17.5 7.851-17.5 17.5zm15-25c0-1.378 1.121-2.5 2.5-2.5h35c1.379 0 2.5 1.122 2.5 2.5v25c0 1.378-1.121 2.5-2.5 2.5h-35c-1.379 0-2.5-1.122-2.5-2.5z"></path><path d="m145.5 420h-35c-9.649 0-17.5 7.851-17.5 17.5v25c0 9.649 7.851 17.5 17.5 17.5h35c9.649 0 17.5-7.851 17.5-17.5v-25c0-9.649-7.851-17.5-17.5-17.5zm2.5 42.5c0 1.378-1.122 2.5-2.5 2.5h-35c-1.378 0-2.5-1.122-2.5-2.5v-25c0-1.378 1.122-2.5 2.5-2.5h35c1.378 0 2.5 1.122 2.5 2.5z"></path><path d="m178 462.5c0 9.649 7.851 17.5 17.5 17.5h35c9.649 0 17.5-7.851 17.5-17.5v-25c0-9.649-7.851-17.5-17.5-17.5h-35c-9.649 0-17.5 7.851-17.5 17.5zm15-25c0-1.378 1.122-2.5 2.5-2.5h35c1.378 0 2.5 1.122 2.5 2.5v25c0 1.378-1.122 2.5-2.5 2.5h-35c-1.378 0-2.5-1.122-2.5-2.5z"></path><path d="m263 462.5c0 9.649 7.851 17.5 17.5 17.5h35c9.649 0 17.5-7.851 17.5-17.5v-25c0-9.649-7.851-17.5-17.5-17.5h-35c-9.649 0-17.5 7.851-17.5 17.5zm15-25c0-1.378 1.121-2.5 2.5-2.5h35c1.379 0 2.5 1.122 2.5 2.5v25c0 1.378-1.121 2.5-2.5 2.5h-35c-1.379 0-2.5-1.122-2.5-2.5z"></path><path d="m349 462.5c0 9.649 7.851 17.5 17.5 17.5h35c9.649 0 17.5-7.851 17.5-17.5v-100c0-9.649-7.851-17.5-17.5-17.5h-35c-9.649 0-17.5 7.851-17.5 17.5zm15-100c0-1.378 1.121-2.5 2.5-2.5h35c1.379 0 2.5 1.122 2.5 2.5v100c0 1.378-1.121 2.5-2.5 2.5h-35c-1.379 0-2.5-1.122-2.5-2.5z"></path><path d="m227.94 135.92c4.142 0 7.5-3.358 7.5-7.5v-59.84c0-4.142-3.358-7.5-7.5-7.5h-12.79c-4.142 0-7.5 3.358-7.5 7.5s3.358 7.5 7.5 7.5h5.29v52.34c0 4.142 3.358 7.5 7.5 7.5z"></path><path d="m295.813 87.316c.147-.917.402-2.265.49-4.009 0-12.579-10.233-22.812-22.813-22.812-10.876 0-20.29 7.738-22.384 18.399-.798 4.064 1.85 8.006 5.914 8.805 4.065.799 8.007-1.85 8.805-5.914.716-3.645 3.939-6.29 7.665-6.29 4.174 0 7.594 3.291 7.803 7.413-.315 3.139-2.056 6.462-5.293 11.404-9.469 13.529-15.119 20.927-18.154 24.901-3.785 4.956-5.685 7.443-4.419 11.557.748 2.433 2.588 4.299 5.048 5.119.995.332 1.893.631 13.612.631 4.579 0 10.812-.046 19.346-.153 4.143-.052 7.458-3.452 7.405-7.594-.051-4.11-3.398-7.406-7.497-7.406-.032 0-.064 0-.096 0-5.505.069-11.324.117-16.33.132 3.253-4.37 7.625-10.374 13.374-18.588 3.878-5.539 6.409-10.786 7.524-15.595z"></path><path d="m366.261 121.624c-2.942.053-7.734-2.972-7.812-7.812 0-4.142-3.357-7.5-7.5-7.5s-7.5 3.358-7.5 7.5c-.285 11.001 10.22 23.239 22.812 22.812 12.579 0 22.813-10.233 22.813-22.812 0-5.888-2.242-11.261-5.917-15.312 3.675-4.051 5.917-9.424 5.917-15.312 0-12.578-10.233-22.812-22.813-22.812-10.875 0-20.289 7.737-22.384 18.397-.799 4.064 1.849 8.007 5.913 8.806 4.063.795 8.007-1.849 8.806-5.913.716-3.645 3.939-6.29 7.665-6.29 4.308 0 7.813 3.504 7.813 7.812s-3.505 7.812-7.813 7.812c-4.143 0-7.5 3.358-7.5 7.5s3.357 7.5 7.5 7.5c4.308 0 7.813 3.504 7.813 7.812-.001 4.307-3.506 7.812-7.813 7.812z"></path><circle cx="321" cy="128.5" r="7.5"></circle></g></svg>