<svg xmlns="http://www.w3.org/2000/svg" id="Capa_1" height="512" viewBox="0 0 511.486 511.486" width="512"><g><path d="m196.049 496.486h-157.359c-12.829 0-23.267-10.438-23.267-23.267v-305.952c0-4.142-3.357-7.5-7.5-7.5s-7.5 3.358-7.5 7.5v305.953c0 21.1 17.166 38.267 38.267 38.267h157.359c4.143 0 7.5-3.358 7.5-7.5s-3.357-7.501-7.5-7.501z"></path><path d="m7.923 142.804c4.143 0 7.5-3.358 7.5-7.5v-63.517c0-12.829 10.438-23.267 23.267-23.267h58.283c4.143 0 7.5-3.358 7.5-7.5s-3.357-7.5-7.5-7.5h-58.283c-21.101 0-38.267 17.167-38.267 38.267v63.518c0 4.141 3.358 7.499 7.5 7.499z"></path><path d="m294.487 48.52h58.283c12.829 0 23.267 10.438 23.267 23.267v181.777c0 4.142 3.357 7.5 7.5 7.5s7.5-3.358 7.5-7.5v-181.777c0-21.1-17.166-38.267-38.267-38.267h-58.283c-4.143 0-7.5 3.358-7.5 7.5s3.357 7.5 7.5 7.5z"></path><path d="m95.642 63.52h-56.952c-4.559 0-8.267 3.708-8.267 8.267v401.433c0 4.558 3.708 8.267 8.267 8.267h150.509c4.143 0 7.5-3.358 7.5-7.5s-3.357-7.5-7.5-7.5h-143.776v-387.967h50.219c4.143 0 7.5-3.358 7.5-7.5s-3.358-7.5-7.5-7.5z"></path><path d="m353.536 261.063c4.143 0 7.5-3.358 7.5-7.5v-181.776c0-4.558-3.708-8.267-8.267-8.267h-56.952c-4.143 0-7.5 3.358-7.5 7.5s3.357 7.5 7.5 7.5h50.219v175.043c0 4.143 3.358 7.5 7.5 7.5z"></path><path d="m140.328 89.37h110.803c12.338 0 22.376-10.038 22.376-22.376v-14.373c0-12.338-10.038-22.376-22.376-22.376h-3.599v-10.08c0-11.119-9.045-20.165-20.164-20.165h-63.277c-11.118 0-20.164 9.046-20.164 20.165v10.081h-3.599c-12.338 0-22.376 10.038-22.376 22.376v14.373c0 12.338 10.038 22.375 22.376 22.375zm-7.376-36.749c0-4.067 3.309-7.376 7.376-7.376h7.744c5.985 0 10.854-4.869 10.854-10.854v-14.226c0-2.848 2.316-5.165 5.164-5.165h63.277c2.848 0 5.164 2.317 5.164 5.165v14.226c0 5.985 4.869 10.854 10.854 10.854h7.744c4.067 0 7.376 3.309 7.376 7.376v14.373c0 4.067-3.309 7.376-7.376 7.376h-110.801c-4.067 0-7.376-3.309-7.376-7.376z"></path><path d="m179.992 62.469h31.475c4.143 0 7.5-3.358 7.5-7.5s-3.357-7.5-7.5-7.5h-31.475c-4.143 0-7.5 3.358-7.5 7.5s3.358 7.5 7.5 7.5z"></path><path d="m503.563 335.492c4.143 0 7.5-3.358 7.5-7.5v-17.333c0-19.076-15.52-34.595-34.596-34.595h-230.174c-19.075 0-34.595 15.52-34.595 34.595v166.231c0 19.076 15.52 34.596 34.595 34.596h230.174c19.076 0 34.596-15.52 34.596-34.596v-116.935c0-4.142-3.357-7.5-7.5-7.5s-7.5 3.358-7.5 7.5v116.935c0 10.805-8.791 19.596-19.596 19.596h-4.271v-82.644c0-10.006-8.141-18.147-18.147-18.147h-128.374c-4.143 0-7.5 3.358-7.5 7.5s3.357 7.5 7.5 7.5h128.374c1.735 0 3.147 1.412 3.147 3.147v82.644h-191.632v-82.644c0-1.735 1.412-3.147 3.147-3.147h25.001c4.143 0 7.5-3.358 7.5-7.5s-3.357-7.5-7.5-7.5h-25.001c-10.007 0-18.147 8.141-18.147 18.147v82.644h-4.271c-10.805 0-19.595-8.791-19.595-19.596v-166.231c0-10.805 8.79-19.595 19.595-19.595h69.526v54.396c0 4.471 2.214 8.631 5.921 11.128 2.251 1.516 4.861 2.292 7.493 2.292 1.703 0 3.415-.325 5.043-.985l27.104-10.988 27.104 10.988c4.143 1.68 8.83 1.191 12.537-1.307s5.921-6.658 5.921-11.128v-54.396h69.525c10.805 0 19.596 8.791 19.596 19.595v17.333c0 4.142 3.357 7.5 7.5 7.5zm-111.621 7.619-25.52-10.346c-3.251-1.318-6.831-1.318-10.082 0l-25.52 10.345v-52.047h61.122z"></path><path d="m434.276 445.979c4.143 0 7.5-3.358 7.5-7.5s-3.357-7.5-7.5-7.5h-107.843c-4.143 0-7.5 3.358-7.5 7.5s3.357 7.5 7.5 7.5z"></path><path d="m280.985 470.66c0 4.142 3.357 7.5 7.5 7.5h145.791c4.143 0 7.5-3.358 7.5-7.5s-3.357-7.5-7.5-7.5h-145.791c-4.143 0-7.5 3.358-7.5 7.5z"></path><path d="m288.485 445.979h11.637c4.143 0 7.5-3.358 7.5-7.5s-3.357-7.5-7.5-7.5h-11.637c-4.143 0-7.5 3.358-7.5 7.5s3.357 7.5 7.5 7.5z"></path><path d="m139.134 151.067c0-9.495-7.726-17.22-17.221-17.22h-22.743c-9.495 0-17.22 7.725-17.22 17.22v22.743c0 9.495 7.725 17.22 17.22 17.22h22.743c9.495 0 17.221-7.725 17.221-17.22zm-15 22.744c0 1.224-.996 2.22-2.221 2.22h-22.743c-1.224 0-2.22-.996-2.22-2.22v-22.743c0-1.224.996-2.22 2.22-2.22h22.743c1.225 0 2.221.996 2.221 2.22z"></path><path d="m165.381 152.844h16.43c4.143 0 7.5-3.358 7.5-7.5s-3.357-7.5-7.5-7.5h-16.43c-4.143 0-7.5 3.358-7.5 7.5s3.358 7.5 7.5 7.5z"></path><path d="m309.694 137.844h-98.227c-4.143 0-7.5 3.358-7.5 7.5s3.357 7.5 7.5 7.5h98.227c4.143 0 7.5-3.358 7.5-7.5s-3.358-7.5-7.5-7.5z"></path><path d="m309.694 170.258h-142.537c-4.143 0-7.5 3.358-7.5 7.5s3.357 7.5 7.5 7.5h142.536c4.143 0 7.5-3.358 7.5-7.5s-3.357-7.5-7.499-7.5z"></path><path d="m139.134 224.961c0-9.495-7.726-17.22-17.221-17.22h-22.743c-9.495 0-17.22 7.725-17.22 17.22v22.743c0 9.495 7.725 17.22 17.22 17.22h22.743c9.495 0 17.221-7.725 17.221-17.22zm-15 22.744c0 1.224-.996 2.22-2.221 2.22h-22.743c-1.224 0-2.22-.996-2.22-2.22v-22.743c0-1.224.996-2.22 2.22-2.22h22.743c1.225 0 2.221.996 2.221 2.22z"></path><path d="m309.694 211.737h-144.313c-4.143 0-7.5 3.358-7.5 7.5s3.357 7.5 7.5 7.5h144.312c4.143 0 7.5-3.358 7.5-7.5s-3.357-7.5-7.499-7.5z"></path><path d="m317.194 251.652c0-4.142-3.357-7.5-7.5-7.5h-142.537c-4.143 0-7.5 3.358-7.5 7.5s3.357 7.5 7.5 7.5h142.536c4.143 0 7.501-3.358 7.501-7.5z"></path><path d="m139.134 298.855c0-9.495-7.726-17.22-17.221-17.22h-22.743c-9.495 0-17.22 7.725-17.22 17.22v22.743c0 9.496 7.725 17.221 17.22 17.221h22.743c9.495 0 17.221-7.725 17.221-17.221zm-15 22.743c0 1.225-.996 2.221-2.221 2.221h-22.743c-1.224 0-2.22-.996-2.22-2.221v-22.743c0-1.224.996-2.22 2.22-2.22h22.743c1.225 0 2.221.996 2.221 2.22z"></path><path d="m181.811 285.631h-16.43c-4.143 0-7.5 3.358-7.5 7.5s3.357 7.5 7.5 7.5h16.43c4.143 0 7.5-3.358 7.5-7.5s-3.358-7.5-7.5-7.5z"></path><path d="m181.811 318.046h-15.653c-4.143 0-7.5 3.358-7.5 7.5s3.357 7.5 7.5 7.5h15.653c4.143 0 7.5-3.358 7.5-7.5s-3.358-7.5-7.5-7.5z"></path><path d="m121.913 355.529h-22.743c-9.495 0-17.22 7.725-17.22 17.22v22.743c0 9.495 7.725 17.22 17.22 17.22h22.743c9.495 0 17.221-7.725 17.221-17.22v-22.743c0-9.495-7.726-17.22-17.221-17.22zm2.221 39.963c0 1.224-.996 2.22-2.221 2.22h-22.743c-1.224 0-2.22-.996-2.22-2.22v-22.743c0-1.224.996-2.22 2.22-2.22h22.743c1.225 0 2.221.996 2.221 2.22z"></path><path d="m165.381 374.525h16.43c4.143 0 7.5-3.358 7.5-7.5s-3.357-7.5-7.5-7.5h-16.43c-4.143 0-7.5 3.358-7.5 7.5s3.358 7.5 7.5 7.5z"></path><path d="m164.157 406.94h17.653c4.143 0 7.5-3.358 7.5-7.5s-3.357-7.5-7.5-7.5h-17.653c-4.143 0-7.5 3.358-7.5 7.5s3.358 7.5 7.5 7.5z"></path></g></svg>