<svg xmlns="http://www.w3.org/2000/svg" xmlns:xlink="http://www.w3.org/1999/xlink" id="Capa_1" x="0px" y="0px" viewBox="0 0 314.14 314.14" style="enable-background:new 0 0 314.14 314.14;" xml:space="preserve">
<g>
	<path d="M267.999,27.069H46.141C20.698,27.069,0,47.767,0,73.209V240.93c0,25.442,20.698,46.141,46.141,46.141h221.858   c25.442,0,46.141-20.698,46.141-46.141V73.209C314.14,47.767,293.441,27.069,267.999,27.069z M57.833,40.069h198.475v234.002   H57.833V40.069z M13,240.93V73.209c0-17.835,14.164-32.417,31.833-33.107v233.936C27.164,273.347,13,258.765,13,240.93z    M301.14,240.93c0,17.835-14.164,32.417-31.832,33.107V40.102c17.668,0.69,31.832,15.272,31.832,33.107V240.93z"></path>
	<path d="M157.07,45.678c-26.905,0-48.795,21.89-48.795,48.795c0,4.683,0.674,9.339,2.004,13.84l2.078,7.039l6.736-2.914   c11.107-4.806,24.24-7.346,37.977-7.346c13.735,0,26.868,2.54,37.977,7.346l6.736,2.914l2.078-7.039   c1.33-4.501,2.004-9.157,2.004-13.84C205.865,67.568,183.976,45.678,157.07,45.678z M192.724,97.65   c-9.033-3.015-18.916-4.82-29.153-5.364V73.838c0-3.59-2.91-6.5-6.5-6.5s-6.5,2.91-6.5,6.5v18.447   c-10.238,0.544-20.121,2.35-29.153,5.364c-0.095-1.055-0.142-2.115-0.142-3.177c0-19.737,16.058-35.795,35.795-35.795   s35.795,16.058,35.795,35.795C192.865,95.535,192.818,96.595,192.724,97.65z"></path>
</g>
<g>
</g>
<g>
</g>
<g>
</g>
<g>
</g>
<g>
</g>
<g>
</g>
<g>
</g>
<g>
</g>
<g>
</g>
<g>
</g>
<g>
</g>
<g>
</g>
<g>
</g>
<g>
</g>
<g>
</g>
</svg>