<svg xmlns="http://www.w3.org/2000/svg" id="Layer_1" height="512" viewBox="0 0 512 512" width="512"><g><g><path d="m106.288 235.055 76.258 165.771c5.057 10.992 14.125 19.367 25.533 23.583 5.159 1.906 10.505 2.855 15.832 2.855 6.454 0 12.877-1.394 18.896-4.167l30.153-13.896c7.194-3.33 10.346-11.878 7.034-19.039l-26.493-57.586c-3.942-8.522-13.322-7.885-16.418-7.679l-14.888 1.031-33.263-72.314 10.49-10.666c2.164-2.211 8.747-8.938 4.796-17.479l-26.472-57.54c-1.582-3.482-4.438-6.138-8.043-7.475-3.62-1.343-7.537-1.19-11.018.421l-30.14 13.89c-22.746 10.478-32.731 37.524-22.257 60.29zm58.093-60.288 25.783 56.044c-.262.348-.705.871-1.45 1.633l-14.107 14.344c-2.185 2.222-2.769 5.563-1.466 8.393l37.59 81.723c1.303 2.833 4.236 4.563 7.332 4.349l20.044-1.389c1.08-.072 1.774-.071 2.214-.046l25.777 56.031-29.568 13.626c-7.346 3.383-15.604 3.689-23.252.865-7.649-2.827-13.724-8.433-17.106-15.783l-76.258-165.771c-7.018-15.255-.331-33.377 14.909-40.397z"></path><path d="m417.595 143.434h-59.183v-103.761c0-21.876-17.788-39.673-39.652-39.673h-53.482-126.144-53.482c-21.864 0-39.652 17.797-39.652 39.673v196.329c0 4.143 3.358 7.5 7.5 7.5s7.5-3.357 7.5-7.5v-196.329c0-13.605 11.059-24.673 24.652-24.673h45.982v13.788c0 11.169 9.083 20.256 20.248 20.256h100.648c11.165 0 20.248-9.087 20.248-20.256v-13.788h45.982c13.593 0 24.652 11.068 24.652 24.673v103.761h-21.309c-26.707 0-48.434 21.727-48.434 48.433v95.556c0 12.105 4.412 23.49 12.497 32.432l-1.854 25.706c-.2 2.771 1.147 5.425 3.502 6.897 1.215.761 2.596 1.143 3.979 1.143 1.296 0 2.593-.335 3.756-1.008l28.879-16.709h18.984v128.915h-282.412v-194.158c0-4.143-3.358-7.5-7.5-7.5s-7.5 3.357-7.5 7.5v201.657c0 21.891 17.788 39.702 39.652 39.702h233.108c21.864 0 39.652-17.811 39.652-39.702v-136.415h19.156c4.142 0 7.5-3.357 7.5-7.5s-3.358-7.5-7.5-7.5h-55.154c-1.319 0-2.614.348-3.756 1.008l-18.367 10.627 1.077-14.934c.161-2.229-.68-4.413-2.294-5.958-6.71-6.423-10.405-15.019-10.405-24.204v-95.556c0-18.435 14.998-33.433 33.434-33.433h95.492c18.42 0 33.405 14.998 33.405 33.433v95.556c0 18.45-14.985 33.461-33.405 33.461h-5.438c-4.142 0-7.5 3.357-7.5 7.5s3.358 7.5 7.5 7.5h5.438c26.691 0 48.405-21.739 48.405-48.461v-95.556c0-26.706-21.714-48.432-48.405-48.432zm-159.818-114.646c0 2.898-2.354 5.256-5.248 5.256h-100.647c-2.844 0-5.248-2.407-5.248-5.256v-13.788h111.143zm60.983 468.212h-233.108c-10.984 0-20.31-7.237-23.487-17.202h280.081c-3.176 9.965-12.502 17.202-23.486 17.202z"></path><path d="m418.919 252.697v-29.225c0-6.965-5.665-12.631-12.627-12.631h-9.213v-9.225c0-6.965-5.665-12.631-12.627-12.631h-29.206c-6.978 0-12.655 5.666-12.655 12.631v9.225h-9.185c-6.979 0-12.656 5.666-12.656 12.631v29.225c0 6.965 5.677 12.631 12.656 12.631h9.185v9.225c0 6.965 5.677 12.631 12.655 12.631h29.206c6.963 0 12.627-5.666 12.627-12.631v-9.225h9.213c6.963 0 12.627-5.666 12.627-12.631zm-15-2.369h-14.34c-4.142 0-7.5 3.357-7.5 7.5v14.355h-24.489v-14.355c0-4.143-3.358-7.5-7.5-7.5h-14.34v-24.486h14.341c4.142 0 7.5-3.357 7.5-7.5v-14.355h24.489v14.355c0 4.143 3.358 7.5 7.5 7.5h14.34v24.486z"></path><path d="m132.768 117.314c0 4.143 3.358 7.5 7.5 7.5h121.752c4.142 0 7.5-3.357 7.5-7.5s-3.358-7.5-7.5-7.5h-121.752c-4.143 0-7.5 3.358-7.5 7.5z"></path><path d="m244.768 89.637c4.142 0 7.5-3.357 7.5-7.5s-3.358-7.5-7.5-7.5h-87.221c-4.142 0-7.5 3.357-7.5 7.5s3.358 7.5 7.5 7.5z"></path></g></g></svg>