<svg xmlns="http://www.w3.org/2000/svg" xmlns:xlink="http://www.w3.org/1999/xlink" id="Layer_1" x="0px" y="0px" viewBox="0 0 512 512" style="enable-background:new 0 0 512 512;" xml:space="preserve">
<g>
	<g>
		<path d="M445.139,0H66.861C42.283,0,22.287,19.996,22.287,44.574v143.761v279.091c0,24.578,19.996,44.574,44.574,44.574h378.278    c24.578,0,44.574-19.996,44.574-44.574V188.335V44.574C489.713,19.996,469.717,0,445.139,0z M465.619,467.426    c0,11.293-9.187,20.48-20.48,20.48H268.047v-217.11c0-6.654-5.395-12.047-12.047-12.047s-12.047,5.393-12.047,12.047v217.11    H66.861c-11.293,0-20.48-9.187-20.48-20.48V200.382h419.238V467.426z M465.619,176.288H46.381V44.574    c0-11.293,9.187-20.48,20.48-20.48h378.278c11.293,0,20.48,9.187,20.48,20.48V176.288z"></path>
	</g>
</g>
<g>
	<g>
		<path d="M372.64,80.802C341.791,48.888,300.366,31.312,256,31.312c-44.366,0-85.791,17.575-116.642,49.489    c-4.569,4.726-4.506,12.243,0.142,16.892l60.218,60.218c2.262,2.261,5.327,3.529,8.518,3.529c0.077,0,0.157,0,0.235-0.002    c3.276-0.064,6.385-1.459,8.609-3.865c10.012-10.826,24.197-17.035,38.918-17.035c14.936,0,28.758,6.05,38.918,17.036    c2.225,2.406,5.334,3.801,8.609,3.865c0.078,0.001,0.157,0.002,0.235,0.002c3.191,0,6.257-1.267,8.518-3.529l60.218-60.22    C377.145,93.045,377.209,85.528,372.64,80.802z M303.376,132.743c-10.283-7.999-22.47-13.279-35.329-15.33v-7.182    c0-6.654-5.395-12.047-12.047-12.047s-12.047,5.393-12.047,12.047v7.181c-12.859,2.05-25.046,7.331-35.329,15.33l-43.361-43.361    C190.401,67.389,222.198,55.406,256,55.406s65.599,11.982,90.737,33.975L303.376,132.743z"></path>
	</g>
</g>
<g>
	<g>
		<path d="M430.464,258.591c-8.521-20.887-25.381-34.399-48.757-39.075c-28.992-5.803-53.056,8.143-67.745,39.263    c-7.912,16.763-11.718,35.94-11.003,55.457c0.73,19.897-1.99,36.164-7.662,45.804c-8.123,13.81-11.954,30.706-10.511,46.355    c1.638,17.739,9.67,32.195,22.617,40.706c9.577,6.295,20.321,9.32,30.759,9.32c16.232,0,31.713-7.323,40.852-21.049    c9.288-13.949,14.114-27.508,18.78-40.621c4.681-13.154,9.104-25.578,17.912-38.49    C436.145,326.301,442.075,287.051,430.464,258.591z M395.801,342.68c-10.562,15.482-15.719,29.974-20.706,43.991    c-4.369,12.276-8.496,23.871-16.137,35.346c-7.564,11.363-25.115,13.629-38.32,4.949c-15.62-10.265-14.947-37.071-4.573-54.708    c10.218-17.371,11.607-41.62,10.972-58.905c-0.575-15.682,2.437-30.996,8.712-44.29c14.737-31.22,34.679-27.231,41.233-25.922    c15.285,3.057,25.775,11.317,31.173,24.55C416.569,288.315,411.374,319.853,395.801,342.68z"></path>
	</g>
</g>
<g>
	<g>
		<path d="M216.701,360.042c-5.672-9.641-8.393-25.908-7.662-45.804c0.716-19.517-3.089-38.694-11.003-55.456    c-14.687-31.118-38.745-45.063-67.745-39.263c-23.375,4.674-40.235,18.186-48.757,39.075c-11.611,28.46-5.68,67.711,14.759,97.669    c8.809,12.908,13.231,25.334,17.913,38.488c4.666,13.113,9.492,26.672,18.779,40.621c9.14,13.729,24.621,21.05,40.853,21.05    c10.435,0,21.184-3.025,30.759-9.32c12.947-8.511,20.979-22.966,22.616-40.706C228.656,390.748,224.826,373.853,216.701,360.042z     M191.359,426.969c-13.207,8.682-30.754,6.414-38.322-4.949c-7.64-11.474-11.766-23.07-16.136-35.346    c-4.989-14.017-10.146-28.509-20.706-43.991c-15.571-22.828-20.766-54.366-12.352-74.991c5.398-13.232,15.888-21.492,31.173-24.55    c1.767-0.353,4.508-0.901,7.857-0.901c9.071,0,22.612,4.021,33.375,26.824c6.275,13.293,9.287,28.607,8.712,44.289    c-0.634,17.284,0.754,41.535,10.972,58.905C206.307,389.896,206.98,416.702,191.359,426.969z"></path>
	</g>
</g>
<g>
	<g>
		<path d="M267.806,232.303c-0.145-0.771-0.385-1.53-0.687-2.253c-0.301-0.735-0.675-1.434-1.108-2.084    c-0.432-0.663-0.938-1.277-1.494-1.831c-0.554-0.554-1.169-1.06-1.831-1.494c-0.651-0.434-1.349-0.807-2.084-1.108    c-0.723-0.301-1.481-0.53-2.252-0.687c-1.554-0.313-3.156-0.313-4.698,0c-0.771,0.157-1.53,0.385-2.265,0.687    c-0.724,0.301-1.422,0.675-2.072,1.108c-0.664,0.434-1.278,0.94-1.832,1.494c-0.554,0.554-1.06,1.169-1.494,1.831    c-0.432,0.651-0.807,1.349-1.108,2.084c-0.301,0.723-0.542,1.482-0.685,2.253c-0.158,0.771-0.241,1.566-0.241,2.349    c0,0.783,0.083,1.578,0.241,2.361c0.142,0.759,0.384,1.518,0.685,2.253c0.301,0.723,0.676,1.422,1.108,2.072    c0.434,0.663,0.94,1.277,1.494,1.831c0.554,0.554,1.169,1.06,1.832,1.506c0.651,0.434,1.348,0.807,2.072,1.108    c0.735,0.289,1.494,0.53,2.265,0.675c0.771,0.157,1.566,0.241,2.349,0.241c0.782,0,1.578-0.084,2.349-0.241    c0.771-0.145,1.53-0.385,2.252-0.675c0.735-0.301,1.434-0.675,2.084-1.108c0.663-0.446,1.277-0.952,1.831-1.506    c0.555-0.554,1.061-1.169,1.494-1.831c0.434-0.651,0.807-1.349,1.108-2.072c0.301-0.735,0.542-1.494,0.687-2.253    c0.157-0.783,0.241-1.578,0.241-2.361C268.047,233.87,267.963,233.074,267.806,232.303z"></path>
	</g>
</g>
<g>
</g>
<g>
</g>
<g>
</g>
<g>
</g>
<g>
</g>
<g>
</g>
<g>
</g>
<g>
</g>
<g>
</g>
<g>
</g>
<g>
</g>
<g>
</g>
<g>
</g>
<g>
</g>
<g>
</g>
</svg>